<svg xmlns="http://www.w3.org/2000/svg" viewBox="0 0 1440 320"><path fill="#5000ca" fill-opacity="1" d="M0,224L18.5,218.7C36.9,213,74,203,111,186.7C147.7,171,185,149,222,128C258.5,107,295,85,332,96C369.2,107,406,149,443,170.7C480,192,517,192,554,186.7C590.8,181,628,171,665,181.3C701.5,192,738,224,775,224C812.3,224,849,192,886,192C923.1,192,960,224,997,218.7C1033.8,213,1071,171,1108,181.3C1144.6,192,1182,256,1218,272C1255.4,288,1292,256,1329,218.7C1366.2,181,1403,139,1422,117.3L1440,96L1440,320L1421.5,320C1403.1,320,1366,320,1329,320C1292.3,320,1255,320,1218,320C1181.5,320,1145,320,1108,320C1070.8,320,1034,320,997,320C960,320,923,320,886,320C849.2,320,812,320,775,320C738.5,320,702,320,665,320C627.7,320,591,320,554,320C516.9,320,480,320,443,320C406.2,320,369,320,332,320C295.4,320,258,320,222,320C184.6,320,148,320,111,320C73.8,320,37,320,18,320L0,320Z"/></svg>