<svg xmlns="http://www.w3.org/2000/svg" viewBox="0 0 1440 320"><path fill="#5000ca" fill-opacity="1" d="M0,224L18.5,218.7C36.9,213,74,203,111,186.7C147.7,171,185,149,222,128C258.5,107,295,85,332,96C369.2,107,406,149,443,170.7C480,192,517,192,554,186.7C590.8,181,628,171,665,181.3C701.5,192,738,224,775,224C812.3,224,849,192,886,192C923.1,192,960,224,997,218.7C1033.8,213,1071,171,1108,181.3C1144.6,192,1182,256,1218,272C1255.4,288,1292,256,1329,218.7C1366.2,181,1403,139,1422,117.3L1440,96L1440,0L1421.5,0C1403.1,0,1366,0,1329,0C1292.3,0,1255,0,1218,0C1181.5,0,1145,0,1108,0C1070.8,0,1034,0,997,0C960,0,923,0,886,0C849.2,0,812,0,775,0C738.5,0,702,0,665,0C627.7,0,591,0,554,0C516.9,0,480,0,443,0C406.2,0,369,0,332,0C295.4,0,258,0,222,0C184.6,0,148,0,111,0C73.8,0,37,0,18,0L0,0Z"/></svg>